<?xml version="1.0" standalone="no"?>
<!DOCTYPE svg PUBLIC "-//W3C//DTD SVG 20010904//EN"
 "http://www.w3.org/TR/2001/REC-SVG-20010904/DTD/svg10.dtd">
<svg version="1.0" xmlns="http://www.w3.org/2000/svg"
 width="260.000000pt" height="260.000000pt" viewBox="0 0 260.000000 260.000000"
 preserveAspectRatio="xMidYMid meet">
<metadata>
Created by potrace 1.11, written by Peter Selinger 2001-2013
</metadata>
<g transform="translate(0.000000,260.000000) scale(0.100000,-0.100000)"
fill="#000000" stroke="none">
<path d="M1115 2524 c-613 -103 -1045 -603 -1045 -1209 0 -343 128 -648 371
-886 216 -212 549 -349 851 -349 155 0 405 58 543 127 154 77 334 228 441 370
151 200 244 480 244 732 0 108 -37 306 -80 422 -146 400 -501 701 -920 778
-36 7 -84 17 -107 22 -58 13 -202 10 -298 -7z m303 -184 c45 -6 121 -22 169
-36 91 -26 243 -95 263 -119 9 -11 -7 -36 -77 -119 -48 -58 -91 -106 -94 -106
-4 0 -12 14 -19 30 -7 17 -26 42 -43 56 -42 35 -146 86 -163 80 -27 -11 -26
-36 4 -73 34 -44 66 -105 76 -145 l6 -28 -122 0 c-119 0 -124 1 -167 30 -34
22 -48 26 -58 18 -10 -8 -13 -72 -13 -287 l-1 -276 -28 -34 c-28 -34 -29 -35
-52 -18 -78 56 -69 54 -96 22 l-25 -30 6 65 c3 36 15 160 27 275 21 207 22
210 50 236 16 14 29 32 29 41 0 14 -103 98 -121 98 -5 0 -18 -13 -31 -30 l-22
-30 -182 0 c-161 0 -183 -2 -188 -17 -5 -11 3 -27 22 -46 30 -29 30 -29 94
-18 36 6 106 11 157 11 l92 0 -7 -77 c-4 -43 -16 -172 -28 -288 l-21 -210 -69
-3 -68 -3 6 48 c3 26 11 109 17 183 10 121 13 138 35 161 14 14 22 32 19 40
-8 20 -123 82 -140 76 -15 -6 -17 -19 -40 -302 -14 -164 -19 -192 -35 -207
-29 -24 -25 -47 17 -90 43 -44 66 -48 89 -13 16 25 18 25 150 25 106 0 134 -3
134 -14 0 -50 -14 -107 -26 -102 -7 3 -84 -13 -171 -34 -87 -21 -185 -44 -218
-51 -43 -10 -61 -19 -63 -32 -4 -21 64 -117 83 -117 8 0 34 13 58 30 51 34
235 115 243 107 3 -3 -38 -56 -91 -119 -77 -89 -102 -112 -119 -110 -30 4 -50
-21 -42 -52 5 -20 -3 -35 -44 -78 l-50 -53 -35 40 c-51 58 -122 174 -156 255
-214 508 0 1096 487 1336 50 24 106 49 125 55 186 56 305 69 467 49z m687
-382 c355 -443 282 -1101 -162 -1458 -260 -210 -599 -278 -933 -189 -77 21
-256 103 -300 138 l-24 19 50 58 c42 49 56 58 85 60 50 1 115 39 149 86 27 37
56 116 74 199 7 31 65 108 83 108 25 2 -55 -215 -124 -337 -46 -81 -48 -107
-5 -107 50 0 208 267 251 424 11 41 23 76 26 79 3 3 5 -108 5 -247 0 -286 -1
-283 76 -240 l44 24 0 202 0 203 25 6 c53 13 55 7 55 -150 0 -130 2 -146 18
-155 13 -7 29 -4 58 12 l39 23 5 134 5 135 30 -1 c17 -1 33 -2 38 -3 4 -1 7
-57 7 -125 0 -142 5 -149 71 -116 l39 20 0 113 0 112 43 0 42 0 0 -150 0 -150
-90 -5 c-89 -5 -90 -5 -93 -32 -3 -24 1 -28 52 -42 37 -11 63 -26 81 -49 15
-17 34 -36 42 -40 22 -13 89 36 113 83 19 37 20 58 20 343 0 291 1 305 20 322
11 10 20 26 20 35 0 20 -83 100 -103 100 -8 0 -26 -13 -40 -30 l-27 -30 -215
0 c-146 0 -215 3 -215 11 0 6 39 55 87 110 l86 99 99 0 98 0 0 -39 c0 -49 14
-55 77 -31 l48 18 -3 136 c-3 134 -3 136 22 161 34 34 33 56 -5 84 -16 12 -29
27 -27 32 7 20 94 119 105 119 6 0 41 -37 78 -82z m-565 -160 c0 -5 -28 -43
-62 -83 l-63 -74 -52 -1 -53 0 0 85 0 85 115 -1 c65 -1 115 -6 115 -11z m268
-94 l-3 -59 -59 -3 c-35 -2 -57 1 -55 7 9 25 105 129 112 122 4 -4 7 -35 5
-67z m-470 -155 c-2 -6 -8 -10 -13 -10 -5 0 -11 4 -13 10 -2 6 4 11 13 11 9 0
15 -5 13 -11z m142 -385 l0 -105 -37 3 -38 3 -3 89 c-2 49 -1 95 2 103 3 7 21
13 41 13 l35 0 0 -106z m198 -1 l3 -103 -41 0 -40 0 0 106 0 105 38 -3 37 -3
3 -102z m200 0 l3 -103 -46 0 -45 0 0 106 0 105 43 -3 42 -3 3 -102z"/>
</g>
</svg>
